PathFileType	3	(X/Y/Z)	D:\Jess\Healthy\Labelled\HA13\20250417\SRRun01.trc
DataRate	CameraRate	NumFrames	NumMarkers	Units	OrigDataRate	OrigDataStartFrame	OrigNumFrames
250.0	250.0	5	37	mm	250.0	35937	2501
Frame#	Time	C7			T10			CLAV			LSHO			RSHO			LASIS			RASIS			LPSIS			RPSIS			LILCR			RILCR			LGTR			LTHI			LLTHI			LLEP			LMEP			LPSH			LLSH			LDSH			LLMAL			LMMAL			LTOE			L5TH			LHEE			RGTR			RTHI			RLTHI			RLEP			RMEP			RPSH			RLSH			RDSH			RLMAL			RMMAL			RTOE			R5TH			RHEE			
		X1	Y1	Z1	X2	Y2	Z2	X3	Y3	Z3	X4	Y4	Z4	X5	Y5	Z5	X6	Y6	Z6	X7	Y7	Z7	X8	Y8	Z8	X9	Y9	Z9	X10	Y10	Z10	X11	Y11	Z11	X12	Y12	Z12	X13	Y13	Z13	X14	Y14	Z14	X15	Y15	Z15	X16	Y16	Z16	X17	Y17	Z17	X18	Y18	Z18	X19	Y19	Z19	X20	Y20	Z20	X21	Y21	Z21	X22	Y22	Z22	X23	Y23	Z23	X24	Y24	Z24	X25	Y25	Z25	X26	Y26	Z26	X27	Y27	Z27	X28	Y28	Z28	X29	Y29	Z29	X30	Y30	Z30	X31	Y31	Z31	X32	Y32	Z32	X33	Y33	Z33	X34	Y34	Z34	X35	Y35	Z35	X36	Y36	Z36	X37	Y37	Z37	

938	143.744	928.9960442855073	1614.066060625728	-309.1456470175918	850.1350651692366	1358.771293820541	-329.2184179109668	1079.373383223769	1503.047845159119	-269.3264996557154	1021.736520324366	1594.823406871033	-446.4926838839302	950.3772262562776	1590.729752763456	-153.9902398381676	1026.125370691821	1064.457408936842	-399.6829322763358	1014.029046719095	1083.678999984498	-193.3732919514658	841.9230294715405	1125.659882014412	-320.7685687598993	836.3489258509359	1124.146852454267	-275.4911085716295	990.1923444224192	1139.039550501369	-453.4630115545467	954.9256153435326	1152.169059341964	-139.1691887014893	925.5624090973181	901.222551264614	-466.9042448447062	965.4844791660704	774.951799650521	-415.4964615590741	828.4786020294644	725.2325327206818	-451.0202799037567	776.0635592314038	600.6780386264209	-436.6333560068071	nan	nan	nan	767.2544158455095	467.9635894628479	-390.7601772077994	625.0752227383493	407.8843468425903	-429.1228272166156	625.2502433415187	283.4334129114022	-374.8645626497473	530.2906788821749	231.2012296258609	-391.1241005927162	nan	nan	nan	584.9761535124043	73.31342304532359	-363.3344957298156	531.4434885568883	77.21671346783538	-394.1532427598762	462.9201758316325	253.9064388710893	-328.3940560058186	1012.271981596096	951.0216506764762	-120.0220801682468	1127.004195040248	890.1010987171718	-217.1876058313349	1083.758515581581	748.0547163270032	-139.2280237475339	1130.950741447706	608.9976988910975	-155.3560097600632	nan	nan	nan	1175.471925386823	514.4335074302647	-199.7290977379939	1070.97088966806	421.2525811199197	-151.1309144042452	1094.808868744605	271.4081200526942	-217.0662559478797	1027.459402701322	203.0083344509393	-194.0658718125439	nan	nan	nan	1164.186202592796	118.7558360522645	-191.075509263191	1105.616300225371	99.04880745338937	-164.4978047837869	956.2629413158822	177.483118560471	-252.3662336037308	
939	143.748	929.0684028780199	1615.307756040419	-308.7831094254251	850.4418641303535	1360.097887082439	-329.093009980868	1079.364729686215	1505.271485567336	-268.7307928302097	1021.708984855593	1596.559466534234	-445.9496010027793	950.4116120907918	1592.367099261071	-153.8569031597436	1026.754945326717	1066.205990798087	-399.1709863740512	1014.483047757738	1085.336498919004	-193.120815207135	842.6771259896925	1127.86970736548	-320.5244056420111	837.0467186801047	1126.260452225868	-275.2681231287368	990.8236381768741	1141.512443006065	-452.7654364689915	955.6757016059399	1154.211188235237	-139.0362614096433	925.4133623176563	903.1556833289859	-466.8191259489967	965.1436650861426	776.0544971195407	-416.9057115778066	827.5423467802245	727.2683194400676	-450.9265215596296	775.2612485986346	602.6082430942367	-436.5600252397222	nan	nan	nan	765.4868380549367	469.7125163888002	-391.3258643974689	622.6834099137658	411.1372163734881	-429.9151551460765	621.4685035420669	286.4968094024898	-376.0876496138359	525.8980038619767	235.7042418813398	-392.4641264409267	nan	nan	nan	576.4168211808551	76.09253762185725	-364.6934338030199	522.8322564498287	81.16848109454556	-394.9838599975964	459.8310905551822	260.5329824703725	-329.650796807267	1011.758173294676	951.5977890734409	-119.9136378055055	1126.561752152958	889.9923857493603	-216.1029681443774	1080.337090740081	747.5896099281171	-139.7994072726599	1127.929747949677	607.2870930870174	-155.0119822717512	nan	nan	nan	1175.501597906637	514.1299431695182	-199.3985077930114	1075.000022575804	416.967855639995	-150.5587791240518	1104.174717199485	268.5123719289463	-217.2226846798718	1039.418538402587	197.5175558539983	-194.2993020956187	nan	nan	nan	1179.011857190857	117.6417813042249	-192.4040331382546	1121.211014888585	95.73707291858334	-165.8163987136799	968.9677246431936	170.0735272371435	-252.3563426511415	
940	143.752	929.1413995809178	1616.412399957059	-308.4181537063624	850.6976232035323	1361.318688268618	-328.8871232133129	1079.353064681379	1507.344828290063	-268.1691922725652	1021.681792849278	1598.127253917766	-445.4192777619524	950.4721521611596	1593.859146257119	-153.7231927473448	1027.343601801903	1067.831153009822	-398.6816318407112	1014.8783036134	1086.812457169685	-192.8868413652786	843.3741060513872	1129.893051220777	-320.3156295122116	837.6935906415168	1128.173884008216	-275.0816907561544	991.3046697377168	1143.854096259751	-452.1288913993437	956.3934234457716	1156.025879044337	-138.9064122847502	925.3675284549228	904.9030242950363	-466.7096238482203	965.0420318324007	776.9999535172026	-418.2186721286652	826.9268054135269	729.0067803867952	-450.7590692489075	774.9608749864292	604.1825863562932	-436.4075948337164	nan	nan	nan	764.0795151243129	471.167238929431	-391.734017471581	620.6420818586522	414.250198545105	-430.6671108494456	617.8001448917723	289.5345346540366	-377.1876946331864	521.5761482269918	240.2933686819639	-393.7510508220943	nan	nan	nan	568.0726900979009	79.18309770480127	-366.1609562553876	514.4760558110423	85.4083132581914	-395.9580779045879	456.7393272363014	267.0519197594004	-330.8509883861124	1011.112958618577	951.7927499184071	-119.7789172422439	1125.913646256324	889.3017315152626	-214.9265558405921	1076.618978549435	746.7483931399322	-140.3255996374855	1124.773994606373	605.3491149976003	-154.7139655224041	nan	nan	nan	1175.315169355018	513.6798392120968	-199.1339707259945	1078.856511511315	412.7956792835627	-150.0185256752943	1113.216222308787	265.8595794440909	-217.3479585565054	1051.090722121781	192.3955461976278	-194.4549428590462	nan	nan	nan	1193.319824395096	116.760407256283	-193.7627349507125	1136.348607808405	92.74122140505845	-167.156021192181	981.3847912755999	163.1627145193099	-252.2267626327666	
941	143.756	929.217083086759	1617.378783937586	-308.0483549994402	850.9018557246832	1362.431774701272	-328.6001844841141	1079.33681158556	1509.258920015123	-267.6407572643996	1021.65773527679	1599.519329790333	-444.9012675856744	950.5554042766623	1595.19610857477	-153.5854610466307	1027.890134946636	1069.323689831557	-398.2160610103826	1015.210674026015	1088.104401974922	-192.6729777011249	844.0089268017554	1131.715635979491	-320.1423944135487	838.2833331025685	1129.875375045099	-274.9304503524987	991.6490424194566	1146.045960725906	-451.5522996328538	957.0725048232422	1157.60852734974	-138.7797604533897	925.4414776461169	906.4451417933009	-466.5667184370141	965.1989833279443	777.794989002084	-419.3763946554049	826.6654731249693	730.4285624104131	-450.5226522868066	775.1657943461719	605.3956076650488	-436.1780881220541	nan	nan	nan	763.0244687370771	472.3265034732344	-391.9939461212452	618.9335210334672	417.2427537233268	-431.371525748183	614.2396814602128	292.5631333124566	-378.1708476590184	517.3209889635956	244.9808370584852	-394.9822088455075	nan	nan	nan	559.9626162123176	82.583437206189	-367.7418083747723	506.391283324705	89.9338336333776	-397.0871077580737	453.6265870694844	273.4676252134706	-331.9859459481617	1010.341238179591	951.6200535176657	-119.6065994972577	1125.061741302843	888.0345214070874	-213.669055332631	1072.64764747156	745.548282421978	-140.785058856958	1121.519276776629	603.2194154930742	-154.4619564402709	nan	nan	nan	1174.932541401373	513.1021580320986	-198.9384104240235	1082.510167017628	408.7692514392667	-149.523412579891	1121.882950819694	263.4532965238812	-217.4430673952897	1062.399620003794	187.652813982937	-194.5390765033655	nan	nan	nan	1207.036836831452	116.0900509970251	-195.1358967352038	1150.941869171008	90.04870686226039	-168.5077497511238	993.4318774312706	156.760389051679	-251.9929814627417	
942	143.76	929.2972595497439	1618.205739773055	-307.6710728704789	851.0549060188314	1363.434787827978	-328.2325813782209	1079.314345816431	1511.005082851712	-267.144451882382	1021.638718255737	1600.729124662754	-444.3949582349028	950.658342217886	1596.368344364497	-153.4397101460575	1028.39414807891	1070.675718850714	-397.7753837246576	1015.477360025381	1089.211254550943	-192.4797246044495	844.5777206124487	1133.324360027036	-320.0035069995146	838.8107395949208	1131.35446264652	-274.812018451188	991.8706623750365	1148.07099074145	-451.0334914278813	957.7067760609131	1158.956754844132	-138.6564007082952	925.651349591797	907.7648138171207	-466.3825813810823	965.6313572146258	778.4474074318481	-420.3256608100255	826.7890017577186	731.5177400136454	-450.2235455534679	775.8749588844722	606.2461225364278	-435.8743132984025	nan	nan	nan	762.3135071701608	473.1923463036416	-392.1190355972471	617.5406525257688	420.1361884131712	-432.0216000964297	610.7867706750451	295.5983038101728	-379.0467788220749	513.1355318080683	249.7770801275966	-396.1572871980079	nan	nan	nan	552.106453225115	86.28880825867873	-369.4388940817232	498.5956191712799	94.74039684374456	-398.3795285331389	450.4841021419683	279.7883925059395	-333.0505134465801	1009.449965477264	951.0986436868981	-119.385436749616	1124.013264350241	886.2079810238006	-212.3455967491228	1068.474131323269	744.012625569094	-141.1583449448224	1118.202838510815	600.9348037432351	-154.2541331591497	nan	nan	nan	1174.374663843735	512.4150013853639	-198.811372925773	1085.929947756048	404.9169351653413	-149.0849681524579	1130.123590623229	261.2905386151953	-217.5096402490671	1073.265651597119	183.2925439871082	-194.5606660024146	nan	nan	nan	1220.088660322803	115.603666954352	-196.5068455572238	1164.901154187004	87.64077838056006	-169.8621372933403	1005.024547253174	150.8679594294852	-251.6749270704723	
